<svg xmlns="http://www.w3.org/2000/svg" id="fi_4843861" data-name="Layer 3" viewBox="0 0 64 64" width="512" height="512"><rect x="20" y="42" width="2" height="2"></rect><rect x="24" y="40" width="2" height="2"></rect><rect x="23" y="45" width="2" height="2"></rect><path d="M59.768,17.251,47.945,9.124a6.487,6.487,0,0,0-6.585-.393l-.463.243A9.041,9.041,0,0,0,36.828,8,7.764,7.764,0,0,0,32,9.665,7.764,7.764,0,0,0,27.172,8a9.082,9.082,0,0,0-4.073.972l-.459-.241a6.482,6.482,0,0,0-6.585.393L4.232,17.251A7.456,7.456,0,0,0,1,23.4a7.844,7.844,0,0,0,.821,3.485l1.6,3.21A3.442,3.442,0,0,0,6.548,32,3.54,3.54,0,0,0,9,31.006v5.286A20.014,20.014,0,0,0,19.645,54.006,9.356,9.356,0,0,0,25.419,56a10.742,10.742,0,0,0,3.4-.551A8.722,8.722,0,0,1,31.581,55h.838a8.722,8.722,0,0,1,2.765.449,10.742,10.742,0,0,0,3.4.551,9.356,9.356,0,0,0,5.774-1.994A20.014,20.014,0,0,0,55,36.292V31.006A3.585,3.585,0,0,0,57.49,32a3.428,3.428,0,0,0,3.085-1.908l1.6-3.211A7.844,7.844,0,0,0,63,23.4,7.456,7.456,0,0,0,59.768,17.251ZM3,23.4a5.454,5.454,0,0,1,2.365-4.5l11.823-8.128a4.46,4.46,0,0,1,3.991-.5,8.812,8.812,0,0,0-1.373,1.523l-2.62,3.362A17.378,17.378,0,0,0,4.221,27.211L3.61,25.988A5.836,5.836,0,0,1,3,23.4ZM6.51,30a1.434,1.434,0,0,1-.835-.275l.113-.565a15.392,15.392,0,0,1,9.245-11.244L11.67,22.23a12.661,12.661,0,0,0-2.119,4.127L7.865,29.248A1.523,1.523,0,0,1,6.51,30Zm11.244,9.167A8.983,8.983,0,0,1,14,31.872a5.764,5.764,0,0,1,.82-2.962A5.994,5.994,0,0,1,25.646,30.1l.85,2.553a15.04,15.04,0,0,0-7.473,5.119,14.2,14.2,0,0,0-1.041,1.56ZM20.6,39a13,13,0,0,1,4.421-3.612c-.01.1-.023.207-.023.311A3.306,3.306,0,0,0,28.3,39a.123.123,0,0,1,.114.071A3.466,3.466,0,0,0,31,40.956v2.166a4.665,4.665,0,0,0-3.568,3.624,5.918,5.918,0,0,1-1.623,3.031L22.288,53.3A7.424,7.424,0,0,1,18,46.581,12.409,12.409,0,0,1,20.6,39ZM33,40.956a3.467,3.467,0,0,0,2.584-1.887A.122.122,0,0,1,35.7,39,3.306,3.306,0,0,0,39,35.7c0-.105-.013-.207-.023-.311A13.01,13.01,0,0,1,43.4,39,12.409,12.409,0,0,1,46,46.581,7.424,7.424,0,0,1,41.712,53.3l-3.521-3.521a5.918,5.918,0,0,1-1.623-3.031A4.665,4.665,0,0,0,33,43.122ZM46.018,39.33a14.107,14.107,0,0,0-1.041-1.56A15.038,15.038,0,0,0,37.5,32.651l.851-2.553A5.994,5.994,0,0,1,49.18,28.91,5.757,5.757,0,0,1,50,31.872a8.983,8.983,0,0,1-3.754,7.3Zm-9.237-4.356A1.3,1.3,0,0,1,35.7,37a2.114,2.114,0,0,0-1.9,1.176A1.481,1.481,0,0,1,32.461,39h-.922a1.48,1.48,0,0,1-1.332-.822A2.115,2.115,0,0,0,28.3,37a1.3,1.3,0,0,1-1.084-2.025A4.423,4.423,0,0,1,30.908,33h2.184A4.425,4.425,0,0,1,36.781,34.974Zm-.965,18.577a10.742,10.742,0,0,0-3.4-.551h-.838a10.742,10.742,0,0,0-3.4.551A8.722,8.722,0,0,1,25.419,54a7.452,7.452,0,0,1-.939-.066l2.743-2.743a7.913,7.913,0,0,0,2.17-4.053,2.658,2.658,0,0,1,5.214,0,7.913,7.913,0,0,0,2.17,4.053l2.743,2.743a7.452,7.452,0,0,1-.939.066A8.722,8.722,0,0,1,35.816,53.551ZM53,36.292a18.015,18.015,0,0,1-5.36,12.837A9.364,9.364,0,0,0,48,46.581a14.4,14.4,0,0,0-1.083-5.435l.491-.352A10.987,10.987,0,0,0,52,31.872a7.764,7.764,0,0,0-1.1-3.992,7.994,7.994,0,0,0-14.437,1.585l-.707,2.122A6.408,6.408,0,0,0,33.092,31H30.908a6.408,6.408,0,0,0-2.659.587l-.707-2.122a7.993,7.993,0,0,0-14.437-1.584A7.758,7.758,0,0,0,12,31.872,10.99,10.99,0,0,0,16.592,40.8l.492.351A14.379,14.379,0,0,0,16,46.581a9.364,9.364,0,0,0,.36,2.548A18.015,18.015,0,0,1,11,36.292V30a10.683,10.683,0,0,1,2.248-6.54l8.164-10.475A7.057,7.057,0,0,1,27.172,10a5.789,5.789,0,0,1,4.121,1.707,1.029,1.029,0,0,0,1.414,0A5.789,5.789,0,0,1,36.828,10a7.083,7.083,0,0,1,5.788,3.023L50.752,23.46A10.683,10.683,0,0,1,53,30ZM57.452,30a1.506,1.506,0,0,1-1.317-.752l-1.686-2.891A12.641,12.641,0,0,0,52.33,22.23l-3.364-4.315A15.4,15.4,0,0,1,58.212,29.16l.112.562A1.493,1.493,0,0,1,57.452,30Zm2.938-4.012-.611,1.223A17.377,17.377,0,0,0,46.813,15.154l-2.59-3.322a9.1,9.1,0,0,0-1.405-1.561,4.466,4.466,0,0,1,3.994.5L58.635,18.9A5.454,5.454,0,0,1,61,23.4,5.836,5.836,0,0,1,60.39,25.988Z"></path><path d="M32,15.665A7.764,7.764,0,0,0,27.172,14H26v2h1.172a5.789,5.789,0,0,1,4.121,1.707,1,1,0,0,0,1.414,0A5.789,5.789,0,0,1,36.828,16H38V14H36.828A7.764,7.764,0,0,0,32,15.665Z"></path><path d="M24,31a4,4,0,1,0-4,4A4,4,0,0,0,24,31Zm-6,0a2,2,0,1,1,2,2A2,2,0,0,1,18,31Z"></path><path d="M44,27a4,4,0,1,0,4,4A4,4,0,0,0,44,27Zm0,6a2,2,0,1,1,2-2A2,2,0,0,1,44,33Z"></path><rect x="42" y="42" width="2" height="2"></rect><rect x="38" y="40" width="2" height="2"></rect><rect x="39" y="45" width="2" height="2"></rect></svg>